<?xml version="1.0" encoding="UTF-8"?>
<svg width="1280px" height="4029px" viewBox="0 0 1280 4029" version="1.1" xmlns="http://www.w3.org/2000/svg" xmlns:xlink="http://www.w3.org/1999/xlink">
    <!-- Generator: Sketch 46.2 (44496) - http://www.bohemiancoding.com/sketch -->
    <title>Desktop</title>
    <desc>Created with Sketch.</desc>
    <defs>
        <linearGradient x1="97.8120099%" y1="0%" x2="10.5102059%" y2="97.7284208%" id="linearGradient-1">
            <stop stop-color="#40009B" offset="0%"></stop>
            <stop stop-color="#24B2EA" offset="100%"></stop>
        </linearGradient>
        <linearGradient x1="56.0228453%" y1="-12.6134405%" x2="15.8931815%" y2="87.0991028%" id="linearGradient-2">
            <stop stop-color="#40009B" offset="0%"></stop>
            <stop stop-color="#24B2EA" offset="100%"></stop>
        </linearGradient>
    </defs>
    <g id="Page-1" stroke="none" stroke-width="1" fill="none" fill-rule="evenodd">
        <g id="Desktop">
            <g id="first" transform="translate(-108.000000, -144.000000)">
                <path d="M40.2637687,149.107935 C193.407028,9.67924869 768.652439,-31.9661177 1766,24.1718362 C1905.87784,241.6191 1873.57739,443.426175 1669.09864,629.593062 C1589.5243,761.711596 1365.29093,986.386842 1004.68583,947.793622 C644.080741,909.200402 -189.451121,358.250965 40.2637687,149.107935 Z" id="Rectangle" fill="url(#linearGradient-1)"></path>
                <rect id="Rectangle-2" fill="#FFFFFF" x="173" y="562" width="212" height="30" rx="15"></rect>
                <rect id="Rectangle-2" fill="#FFFFFF" x="245" y="609" width="212" height="30" rx="15"></rect>
                <rect id="Rectangle-2" fill="#FFFFFF" x="299" y="656" width="212" height="30" rx="15"></rect>
            </g>
            <g id="Second" transform="translate(-1138.000000, 1049.000000)">
                <path d="M204.642992,426.107935 C357.84134,286.679249 933.293676,245.033882 1931,301.171836 C1884.26356,584.640673 1758.61918,819.458535 1554.06687,1005.62542 C1474.46391,1137.74396 1126.87187,1168.87391 934.934797,1098.08684 C454.356459,891.699842 -170.435912,1222.465 204.642992,426.107935 Z" id="Rectangle" fill="url(#linearGradient-2)" transform="translate(1010.500000, 706.000000) rotate(199.000000) translate(-1010.500000, -706.000000) "></path>
                <rect id="Rectangle-2" fill="#FFFFFF" x="1739" y="1050" width="212" height="30" rx="15"></rect>
                <rect id="Rectangle-2" fill="#FFFFFF" x="1691" y="1111" width="212" height="30" rx="15"></rect>
                <rect id="Rectangle-2" fill="#FFFFFF" x="1633" y="1166" width="212" height="30" rx="15"></rect>
                <g id="development" transform="translate(1312.000000, 736.000000)" fill-rule="nonzero">
                    <polyline id="Shape" fill="#EDF2FA" points="159.302833 214 279 214 279 6 5 6 5 214 22.8210522 214"></polyline>
                    <rect id="Rectangle-path" fill="#70DDD6" x="5" y="174" width="274" height="41"></rect>
                    <rect id="Rectangle-path" fill="#EDF2FA" x="149" y="258" width="51" height="22"></rect>
                    <polyline id="Shape" fill="#7D9BFF" points="86 280 198 280 198 258 152.551638 258"></polyline>
                    <g id="Group" transform="translate(17.000000, 206.000000)" fill="#FF5D5D">
                        <path d="M152.808055,49.9894444 L152.808055,34.3638889 C152.808055,20.1744444 144.929389,7.15388889 132.350007,0.553888889 L132.350007,0.553888889 L132.350007,49.9894444" id="Shape"></path>
                        <path d="M0.541341818,49.9894444 L0.541341818,34.3638889 C0.541341818,20.1744444 8.42000727,7.15388889 20.9993891,0.553888889 L20.9993891,0.553888889 L20.9993891,46.6638889" id="Shape"></path>
                    </g>
                    <path d="M148,244.006212 L148,201.70128 C148,156.687165 127.575312,114.114371 92.4916808,86 L92.4916808,86 L92.4911262,86 C57.4174778,114.114927 37,156.681052 37,201.687942 L37,249 L148,244.006212 Z" id="Shape" fill="#FFFFFF"></path>
                    <circle id="Oval" fill="#5A54E0" cx="93.5" cy="170.5" r="26.5"></circle>
                    <g id="Group" transform="translate(5.000000, 217.000000)" fill="#ADE5FF">
                        <path d="M170.530588,61.9967368 C170.530588,49.9638421 160.506971,40.2086316 148.143,40.2086316 C135.779029,40.2086316 125.755412,49.9638421 125.755412,61.9967368 L170.530588,61.9967368 Z" id="Shape"></path>
                        <path d="M142.403882,31.0848421 C133.194471,12.779614 113.865882,0.174578947 91.5118235,0.174578947 C66.3938235,0.174578947 45.0987353,16.0911754 37.6848235,38.1251053 C34.3648529,36.6904035 30.6928235,35.8882105 26.8252059,35.8882105 C12.0102353,35.8887544 0,47.577386 0,61.9967368 L23.8992059,61.9967368 L125.755971,61.9967368" id="Shape"></path>
                    </g>
                    <polygon id="Shape" fill="#C9F3FF" points="177 70 149 97.8652515 149 144 177 144"></polygon>
                    <polygon id="Shape" fill="#FFC66C" points="203 88.4743886 175 70 175 144 203 144"></polygon>
                    <polygon id="Shape" fill="#FE8F8D" points="231 59 203 87.8806266 203 143 231 143"></polygon>
                    <polygon id="Shape" fill="#A0E557" points="259 31 231 58.5901121 231 142 259 142"></polygon>
                    <path d="M279.433594,0 L5.57364258,0 C2.49987305,0 0.00723632812,2.49214336 0.00723632812,5.56654759 L0.00723632812,213.796063 C0.00723632812,216.869911 2.49987305,219.362611 5.57364258,219.362611 L15.6104297,219.362611 C12.7058789,225.272058 11.1188965,231.865633 11.1188965,238.72028 L11.1188965,254.376752 C11.1188965,254.603867 11.136709,254.825972 11.1628711,255.045851 C4.33233398,260.971441 0,269.703127 0,279.433452 C0,282.5073 2.49263672,285 5.56640625,285 L86.0989453,285 L130.831143,285 L175.430859,285 L198.908291,285 C201.982061,285 204.474697,282.5073 204.474697,279.433452 L204.474697,257.132749 C204.474697,254.058902 201.982061,251.566202 198.908291,251.566202 L174.593115,251.566202 L174.593115,238.72028 C174.593115,231.865077 173.006133,225.272058 170.101582,219.362611 L279.433594,219.362611 C282.507363,219.362611 285,216.869911 285,213.796063 L285,5.56599093 C285,2.4915867 282.507363,0 279.433594,0 Z M42.7188281,204.843385 L42.7188281,200.732489 C42.7188281,158.612094 60.932666,119.263839 92.8482129,92.0695838 C124.773223,119.263839 142.993184,158.618217 142.993184,200.746406 L142.993184,204.843385 L142.993184,231.332358 C139.201904,227.080072 134.825039,223.347146 129.96835,220.254372 C120.039551,213.931887 108.543809,210.590288 96.7224316,210.590288 C73.9814355,210.590288 53.5371387,222.873432 42.7193848,242.118101 C42.7188281,242.118657 42.7188281,204.843385 42.7188281,204.843385 Z M209.081455,136.818503 L209.081455,88.3806327 L225.780117,71.6815466 L225.780117,136.818503 L209.081455,136.818503 L209.081455,136.818503 Z M197.949199,136.818503 L181.250537,136.818503 L181.250537,73.8764363 L197.949199,90.5755224 L197.949199,136.818503 Z M170.117725,136.818503 L153.419063,136.818503 L153.419063,98.9403735 L170.117725,82.2412874 L170.117725,136.818503 Z M142.286807,136.818503 L140.21165,136.818503 C139.788047,135.889446 139.36667,134.959833 138.924141,134.039683 C136.73209,129.479567 134.294004,125.032452 131.653857,120.705575 L142.28625,110.072912 L142.28625,136.818503 L142.286807,136.818503 Z M144.762744,147.951042 L175.673555,147.951042 C175.677451,147.951042 175.680791,147.951598 175.684131,147.951598 C175.687471,147.951598 175.691367,147.951042 175.694707,147.951042 L231.335391,147.951042 C231.339287,147.951042 231.342627,147.951598 231.345967,147.951598 C231.349307,147.951598 231.353203,147.951042 231.356543,147.951042 L273.866074,147.951042 L273.866074,166.991974 L150.349746,166.991974 C148.897471,160.531439 147.024932,154.167762 144.762744,147.951042 Z M273.867744,11.1325385 L273.867744,136.818503 L264.744404,136.818503 L264.744404,96.577374 C264.744404,93.5029698 262.251768,91.0108264 259.177998,91.0108264 C256.104229,91.0108264 253.611592,93.5029698 253.611592,96.577374 L253.611592,136.818503 L236.91293,136.818503 L236.91293,61.8805263 C236.91293,61.4686017 236.865059,61.068367 236.779893,60.6820486 L253.611592,43.849922 L253.611592,50.4930399 C253.611592,53.5674441 256.104229,56.0595875 259.177998,56.0595875 C262.251768,56.0595875 264.744404,53.5674441 264.744404,50.4930399 L264.744404,30.4111628 C264.744404,27.3367586 262.251768,24.8446152 259.177998,24.8446152 L239.097187,24.8446152 C236.023418,24.8446152 233.530781,27.3367586 233.530781,30.4111628 C233.530781,33.485567 236.023418,35.9777104 239.097187,35.9777104 L245.73958,35.9777104 L202.41791,79.3004803 L183.802734,60.6842752 C181.628496,58.5105384 178.104961,58.5105384 175.930166,60.6842752 L125.388867,111.226857 C117.152256,99.7196901 107.344805,89.3208226 96.3227637,80.5061945 C94.2899121,78.8802059 91.4015039,78.8802059 89.3686523,80.5067511 C71.4492773,94.8422812 56.7222363,113.353279 46.7811914,134.037456 C41.7435937,144.519822 37.9144629,155.613394 35.3583691,166.992531 L11.1394922,166.992531 L11.1394922,11.1330952 L273.867187,11.1330952 L273.867187,11.1325385 L273.867744,11.1325385 Z M23.3855859,208.229516 L11.1394922,208.229516 L11.1394922,178.124513 L33.2854395,178.124513 C32.1671484,185.614303 31.5860156,193.178684 31.5860156,200.732489 L31.5860156,201.63594 C28.5829395,203.52467 25.8570703,205.743495 23.4434766,208.232299 C23.4245508,208.232299 23.4050684,208.229516 23.3855859,208.229516 Z M22.2511523,238.720837 C22.2511523,230.000283 25.6822852,221.840838 31.5865723,215.827296 L31.5865723,247.163063 C28.3346777,247.232645 25.2002344,247.783176 22.2511523,248.750642 L22.2511523,238.720837 Z M11.8753711,273.866905 C14.3245898,264.893073 22.5489551,258.277788 32.2873828,258.277788 C35.2604004,258.277788 38.1399023,258.887325 40.8474023,260.088586 C42.2857617,260.728183 43.9284082,260.727069 45.3667676,260.087473 C46.805127,259.448433 47.9056055,258.229359 48.3954492,256.733628 C55.2521484,235.793389 74.6727832,221.72394 96.7213184,221.72394 C116.293359,221.72394 133.801934,232.652186 142.414834,250.242477 C142.579043,250.57814 142.774424,250.88931 142.992627,251.17543 L142.992627,253.484991 C134.30291,256.892275 127.723418,264.536258 125.82416,273.867461 L86.099502,273.867461 L11.8753711,273.866905 L11.8753711,273.866905 Z M137.349404,273.866905 C139.64833,267.367404 145.854316,262.699297 153.131279,262.699297 C160.408242,262.699297 166.614229,267.367961 168.913154,273.866905 L137.349404,273.866905 Z M193.341885,273.866905 L180.437842,273.866905 C179.598428,269.742093 177.843896,265.946264 175.398018,262.699297 L193.341885,262.699297 L193.341885,273.866905 Z M154.125439,251.566759 L154.125439,243.121749 L154.125439,215.82674 C154.591904,216.301566 155.037217,216.794762 155.471953,217.295752 C155.502012,217.333048 155.53374,217.368673 155.564355,217.404856 C160.579131,223.231361 163.460859,230.737851 163.460859,238.72028 L163.460859,251.566202 L154.125439,251.566759 L154.125439,251.566759 Z M273.867744,208.229516 L162.264639,208.229516 C159.852158,205.741825 157.126846,203.523556 154.124883,201.63594 L154.124883,200.746406 C154.124883,193.187591 153.543193,185.618756 152.423232,178.124513 L273.867187,178.124513 L273.867744,208.229516 L273.867744,208.229516 Z" id="Shape" fill-opacity="0.902287138" fill="#060606"></path>
                    <path d="M92.5,200 C109.868748,200 124,185.869291 124,168.5 C124,151.130709 109.869291,137 92.5,137 C75.1307092,137 61,151.130709 61,168.5 C61,185.869291 75.1312523,200 92.5,200 Z M92.5,147.862256 C103.8793,147.862256 113.137744,157.121243 113.137744,168.500543 C113.137744,179.879843 103.8793,189.138287 92.5,189.138287 C81.1207004,189.138287 71.8622562,179.879843 71.8622562,168.500543 C71.8622562,157.1207 81.1201572,147.862256 92.5,147.862256 Z" id="Shape" fill="#000000"></path>
                    <path d="M28.4465258,63 L78.5534742,63 C81.5610457,63 84,60.53765 84,57.5 C84,54.46235 81.5610457,52 78.5534742,52 L28.4465258,52 C25.4389543,52 23,54.46235 23,57.5 C23,60.53765 25.4389543,63 28.4465258,63 Z" id="Shape" fill="#000000"></path>
                    <path d="M71.5,74 C70.0535,74 68.6345,74.5885 67.6115,75.6115 C66.5885,76.6345 66,78.0535 66,79.5 C66,80.9465 66.58795,82.3655 67.6115,83.3885 C68.6345,84.4115 70.0535,85 71.5,85 C72.9465,85 74.3655,84.4115 75.38795,83.3885 C76.41645,82.3655 77,80.9465 77,79.5 C77,78.0535 76.41645,76.6345 75.38795,75.6115 C74.3655,74.5885 72.9465,74 71.5,74 Z" id="Shape" fill="#000000"></path>
                    <path d="M28.4069171,85 L46.5930829,85 C49.5787825,85 52,82.53765 52,79.5 C52,76.46235 49.5787825,74 46.5930829,74 L28.4069171,74 C25.4212175,74 23,76.46235 23,79.5 C23,82.53765 25.4212175,85 28.4069171,85 Z" id="Shape" fill="#000000"></path>
                    <path d="M28.7079899,40 L60.2920101,40 C63.4439621,40 66,37.53765 66,34.5 C66,31.46235 63.4439621,29 60.2920101,29 L28.7079899,29 C25.5560379,29 23,31.46235 23,34.5 C23,37.53765 25.5560379,40 28.7079899,40 Z" id="Shape" fill="#000000"></path>
                    <path d="M260.5,74 C259.0535,74 257.6345,74.5885 256.61205,75.6115 C255.58905,76.6345 255,78.0535 255,79.5 C255,80.9465 255.5885,82.3655 256.61205,83.3885 C257.6345,84.4115 259.0535,85 260.5,85 C261.94705,85 263.3655,84.4115 264.3885,83.3885 C265.4115,82.3655 266,80.9465 266,79.5 C266,78.0535 265.41205,76.6345 264.3885,75.6115 C263.36495,74.5885 261.94705,74 260.5,74 Z" id="Shape" fill="#000000"></path>
                </g>
            </g>
            <g id="third" transform="translate(1399.500000, 3172.500000) scale(-1, 1) translate(-1399.500000, -3172.500000) translate(389.000000, 2467.000000)">
                <path d="M204.660268,425.420891 C357.858616,285.992204 933.310952,244.346837 1931.01728,300.484791 C1884.28083,583.953628 1758.63646,818.77149 1554.08415,1004.93838 C1474.48118,1137.05691 1126.88914,1168.18686 934.952073,1097.3998 C454.373734,891.012797 -170.418636,1221.77795 204.660268,425.420891 Z" id="Rectangle" fill="url(#linearGradient-2)" transform="translate(1010.517276, 705.312955) rotate(199.000000) translate(-1010.517276, -705.312955) "></path>
                <rect id="Rectangle-2" fill="#FFFFFF" x="1684" y="1044" width="212" height="30" rx="15"></rect>
                <rect id="Rectangle-2" fill="#FFFFFF" x="1636" y="1105" width="212" height="30" rx="15"></rect>
                <rect id="Rectangle-2" fill="#FFFFFF" x="1578" y="1160" width="212" height="30" rx="15"></rect>
                <g id="web-design" transform="translate(1398.500000, 861.500000) scale(-1, 1) translate(-1398.500000, -861.500000) translate(1253.000000, 705.000000)">
                    <path d="M64.375,313 L48.1875,313 C39.2472786,313 32,305.751756 32,296.810345 L32,296.810345 L32,16.1896552 C32,7.24824353 39.2472786,0 48.1875,0 L274.8125,0 C283.752721,0 291,7.24824353 291,16.1896552 L291,296.810345 C291,305.751756 283.752721,313 274.8125,313 L274.8125,313 L64.375,313 Z" id="Shape" fill="#E6E6E6" fill-rule="nonzero"></path>
                    <path d="M48.1875,0 L274.8125,0 C283.752721,0 291,7.21929687 291,16.125 L291,43 L291,43 L32,43 L32,43 L32,16.125 C32,7.21929687 39.2472786,0 48.1875,0 Z" id="Shape" fill="#0071BC" fill-rule="nonzero"></path>
                    <polygon id="Shape" fill="#DA4836" fill-rule="nonzero" points="48 16 59 16 59 27 48 27"></polygon>
                    <polygon id="Shape" fill="#F8CF26" fill-rule="nonzero" points="70 16 81 16 81 27 70 27"></polygon>
                    <polygon id="Shape" fill="#3DBF50" fill-rule="nonzero" points="92 16 103 16 103 27 92 27"></polygon>
                    <polygon id="Shape" fill="#29ABE2" fill-rule="nonzero" points="0 119 151 119 151 216 0 216"></polygon>
                    <g id="Group" transform="translate(59.000000, 60.000000)" fill-rule="nonzero" fill="#999999">
                        <polygon id="Shape" points="0 21.5172414 102.6 21.5172414 102.6 32.2758621 0 32.2758621"></polygon>
                        <polygon id="Shape" points="21.6 0 102.6 0 102.6 10.7586207 21.6 10.7586207"></polygon>
                        <polygon id="Shape" points="0 0 10.8 0 10.8 10.7586207 0 10.7586207"></polygon>
                        <polygon id="Shape" points="135 145.241379 216 145.241379 216 156 135 156"></polygon>
                        <polygon id="Shape" points="113.4 145.241379 124.2 145.241379 124.2 156 113.4 156"></polygon>
                    </g>
                    <g id="Group" transform="translate(26.000000, 138.000000)" fill-rule="nonzero" fill="#F2F2F2">
                        <path d="M24.4662069,49.5023256 L2.83862069,33.3162791 C0.449448276,31.5283953 -0.0344689655,28.1468605 1.75724138,25.7627907 C2.06475862,25.354093 2.42904828,24.9905814 2.83862069,24.6837209 L24.4662069,8.49767442 L30.9544828,17.1302326 L15.0960552,29 L30.9544828,40.8697674 L24.4662069,49.5023256 Z" id="Shape"></path>
                        <path d="M74.2096552,49.5023256 L67.7213793,40.8697674 L83.5798069,29 L67.7213793,17.1302326 L74.2096552,8.49767442 L95.8372414,24.6837209 C98.2264138,26.4716047 98.710331,29.8531395 96.9186207,32.2372093 C96.6111034,32.645907 96.2468138,33.0094186 95.8372414,33.3162791 L74.2096552,49.5023256 Z" id="Shape"></path>
                        <polygon id="Shape" points="33.4997793 53.9622558 55.1320966 0.0128139535 65.1767586 4.0235814 43.5444414 57.9730233"></polygon>
                    </g>
                    <path d="M199.503686,167 L199.503686,150.415555 C178.940447,138.516525 171.89503,112.162663 183.767041,91.552625 C195.639052,70.9425873 221.933074,63.8811364 242.496314,75.780166 C263.059553,87.6791956 270.10497,114.033058 258.232959,134.643096 C254.459684,141.193521 249.032537,146.63302 242.496314,150.415555 L242.496314,167 L199.503686,167 Z" id="Shape" fill="#FCBF29" fill-rule="nonzero"></path>
                    <polygon id="Shape" fill="#0071BC" fill-rule="nonzero" points="199 167 242 167 242 189 199 189"></polygon>
                    <path d="M205.379042,140.157926 C229.301757,140.178057 248.71157,120.98329 248.731892,97.2844227 C248.737989,89.820313 246.779598,82.4843741 243.048427,76 C263.849638,87.6809996 271.153467,113.854706 259.361801,134.460696 C255.550695,141.120214 250.009486,146.648339 243.313971,150.470651 L243.313971,167 L199.959767,167 L199.959767,150.470651 C193.318444,146.646326 187.813138,141.153767 184,134.547932 C190.512614,138.22731 197.881474,140.16061 205.379042,140.157926 Z" id="Shape" fill="#F28D01" fill-rule="nonzero" opacity="0.5"></path>
                    <g id="Group" transform="translate(205.000000, 113.000000)" stroke="#FFFFFF" stroke-width="2" stroke-linejoin="round">
                        <path d="M16,54 L16,16.2" id="Shape"></path>
                        <polyline id="Shape" points="32 0 16 16.2 0 0"></polyline>
                    </g>
                    <polygon id="Shape" fill="#8C6239" fill-rule="nonzero" points="183 162 258 162 258 173 183 173"></polygon>
                    <polygon id="Shape" fill="#DA4836" fill-rule="nonzero" points="220.897959 286 264 264.5 220.897959 243 0 243 0 286"></polygon>
                    <polygon id="Shape" fill="#F8CF26" fill-rule="nonzero" points="32 243 54 243 54 286 32 286"></polygon>
                    <polygon id="Shape" fill="#FBB03B" fill-rule="nonzero" points="0 243 32 243 32 286 0 286"></polygon>
                    <polygon id="Shape" fill="#8C6239" fill-rule="nonzero" points="221 243 264 264.5 221 286"></polygon>
                    <polygon id="Shape" fill="#F7931E" fill-rule="nonzero" points="54 264 221 264 221 286 54 286"></polygon>
                </g>
            </g>
        </g>
    </g>
</svg>