<?xml version="1.0" encoding="UTF-8"?>
<svg width="791px" height="1157px" viewBox="0 0 791 1157" version="1.1" xmlns="http://www.w3.org/2000/svg" xmlns:xlink="http://www.w3.org/1999/xlink">
    <!-- Generator: Sketch 46.2 (44496) - http://www.bohemiancoding.com/sketch -->
    <title>Second</title>
    <desc>Created with Sketch.</desc>
    <defs>
        <filter x="-0.2%" y="-0.1%" width="100.4%" height="100.3%" filterUnits="objectBoundingBox" id="filter-1">
            <feOffset dx="0" dy="2" in="SourceAlpha" result="shadowOffsetOuter1"></feOffset>
            <feGaussianBlur stdDeviation="2" in="shadowOffsetOuter1" result="shadowBlurOuter1"></feGaussianBlur>
            <feColorMatrix values="0 0 0 0 0   0 0 0 0 0   0 0 0 0 0  0 0 0 0.5 0" type="matrix" in="shadowBlurOuter1" result="shadowMatrixOuter1"></feColorMatrix>
            <feMerge>
                <feMergeNode in="shadowMatrixOuter1"></feMergeNode>
                <feMergeNode in="SourceGraphic"></feMergeNode>
            </feMerge>
        </filter>
        <linearGradient x1="56.0228453%" y1="-12.6134405%" x2="15.8931815%" y2="87.0991028%" id="linearGradient-2">
            <stop stop-color="#40009B" offset="0%"></stop>
            <stop stop-color="#24B2EA" offset="100%"></stop>
        </linearGradient>
    </defs>
    <g id="Page-1" stroke="none" stroke-width="1" fill="none" fill-rule="evenodd">
        <g id="Desktop" transform="translate(0.000000, -1298.000000)">
            <g id="maquette" filter="url(#filter-1)" transform="translate(-1143.000000, -121.000000)">
                <g id="Second" transform="translate(0.000000, 1158.000000)">
                    <path d="M359.546284,652.314368 C721.246761,140.623712 1229.38657,118.925354 1883.9657,587.219293 C1837.22926,870.68813 1711.58488,1105.50599 1507.03257,1291.67288 C1427.42961,1423.79141 1079.83757,1454.92136 887.900498,1384.1343 C407.32216,1177.7473 -183.004431,1419.85035 359.546284,652.314368 Z" id="Rectangle" fill="url(#linearGradient-2)" transform="translate(1013.457202, 836.299706) rotate(199.000000) translate(-1013.457202, -836.299706) "></path>
                    <text id="Data-vizualisation-&amp;" font-family="Lato-Medium, Lato" font-size="39" font-weight="400" letter-spacing="-0.658125103" fill="#FFFFFF">
                        <tspan x="1241.37044" y="705">Data vizualisation &amp; science</tspan>
                    </text>
                    <g id="analytics" transform="translate(1373.000000, 800.000000)" fill-rule="nonzero">
                        <g id="Group" transform="translate(30.000000, 32.000000)" fill="#E8EAE9">
                            <path d="M139.804031,103.357042 L79.1587379,12.3989711 C78.3337608,11.5759486 77.5083969,10.7525402 76.2707379,10.7525402 C75.0330789,10.7525402 73.7954198,10.7525402 72.9704427,11.5755627 L37.0783308,41.6207074 L7.37451399,1.6977492 C6.13685496,0.051318328 3.24885496,-0.36 1.59890076,0.874726688 C-0.0514402036,2.10945338 -0.464122137,4.99022508 0.773536896,6.63665595 L33.3653537,49.85209 C34.1903308,50.6751125 35.0156947,51.4985209 36.2533537,51.4985209 C37.4910127,51.4985209 38.3159898,51.0868167 39.5536489,50.6754984 L75.0330789,21.0420579 L130.315053,103.768746 L139.803644,103.768746 L139.803644,103.357042 L139.804031,103.357042 Z" id="Shape"></path>
                            <path d="M149.705303,11.1638585 C148.054962,9.92913183 145.167349,10.340836 143.92969,11.986881 L87.8223511,90.1863666 L63.8941476,68.3729904 C62.2438066,66.7265595 59.7684885,67.1382637 58.1185344,68.3729904 L13.5628092,112.823151 C11.9124682,114.469582 11.9124682,116.939035 13.5628092,118.58508 C15.2131501,120.231125 17.6884682,120.231511 19.3384224,118.58508 L61.4188295,76.604373 L86.1720102,99.2411576 C86.9969873,100.06418 88.2346463,100.475884 89.4723053,100.06418 C90.7099644,100.06418 91.9476234,99.2411576 92.3603053,98.4177492 L151.355257,16.9257878 C152.180621,15.2797428 151.767939,12.8102894 149.705303,11.1638585 Z" id="Shape"></path>
                        </g>
                        <path d="M197,189.201955 C197,193.71641 193.30625,197 189.201955,197 L7.79804492,197 C3.69375,197 0,193.30625 0,189.201955 L0,7.79804492 C0,3.69375 3.69375,0 7.79804492,0 C11.9023398,0 15.5960898,3.69375 15.5960898,7.79804492 L15.5960898,24.2148398 L21.3417949,24.2148398 L21.3417949,28.31875 L15.5957051,28.31875 L15.5957051,51.7125 L21.3414102,51.7125 L21.3414102,55.8167949 L15.5957051,55.8167949 L15.5957051,79.2105449 L21.3414102,79.2105449 L21.3414102,83.3148398 L15.5957051,83.3148398 L15.5957051,106.298045 L21.3414102,106.298045 L21.3414102,110.40234 L15.5957051,110.40234 L15.5957051,133.79609 L21.3414102,133.79609 L21.3414102,137.9 L15.5957051,137.9 L15.5957051,161.29375 L21.3414102,161.29375 L21.3414102,165.398045 L15.5957051,165.398045 L15.5957051,181.81484 L32.0125,181.81484 L32.0125,176.06875 L36.1167949,176.06875 L36.1167949,181.814455 L59.5105449,181.814455 L59.5105449,176.06875 L63.6148398,176.06875 L63.6148398,181.814455 L87.0085898,181.814455 L87.0085898,176.06875 L91.1125,176.06875 L91.1125,181.814455 L114.50625,181.814455 L114.50625,176.06875 L118.610545,176.06875 L118.610545,181.814455 L141.59375,181.814455 L141.59375,176.06875 L145.698045,176.06875 L145.698045,181.814455 L169.091795,181.814455 L169.091795,176.06875 L173.19609,176.06875 L173.19609,181.814455 L189.6125,181.814455 C193.30625,181.404295 197,184.6875 197,189.201955 Z" id="Shape" fill="#E6E6E6"></path>
                        <circle id="Oval" fill="#66C6B9" cx="177" cy="46" r="12"></circle>
                        <circle id="Oval" fill="#415A6B" cx="118" cy="126" r="12"></circle>
                        <circle id="Oval" fill="#F3705A" cx="90" cy="104" r="12"></circle>
                        <circle id="Oval" fill="#55C0EB" cx="67" cy="77" r="12"></circle>
                        <circle id="Oval" fill="#FFD15C" cx="103" cy="48" r="12"></circle>
                        <circle id="Oval" fill="#F3705A" cx="167" cy="138" r="12"></circle>
                    </g>
                </g>
            </g>
        </g>
    </g>
</svg>