<?xml version="1.0" encoding="UTF-8"?>
<svg width="388px" height="723px" viewBox="0 0 388 723" version="1.1" xmlns="http://www.w3.org/2000/svg" xmlns:xlink="http://www.w3.org/1999/xlink">
    <!-- Generator: Sketch 46.2 (44496) - http://www.bohemiancoding.com/sketch -->
    <title>Second Copy</title>
    <desc>Created with Sketch.</desc>
    <defs>
        <linearGradient x1="56.0228453%" y1="-12.6134405%" x2="15.8931815%" y2="87.0991028%" id="linearGradient-1">
            <stop stop-color="#40009B" offset="0%"></stop>
            <stop stop-color="#24B2EA" offset="100%"></stop>
        </linearGradient>
    </defs>
    <g id="Page-1" stroke="none" stroke-width="1" fill="none" fill-rule="evenodd">
        <g id="Desktop-Copy" transform="translate(0.000000, -1489.000000)">
            <g id="Second-Copy" transform="translate(-1542.000000, 968.000000)">
                <path d="M359.546284,652.314368 C721.246761,140.623712 1229.38657,118.925354 1883.9657,587.219293 C1837.22926,870.68813 1711.58488,1105.50599 1507.03257,1291.67288 C1427.42961,1423.79141 1079.83757,1454.92136 887.900498,1384.1343 C407.32216,1177.7473 -183.004431,1419.85035 359.546284,652.314368 Z" id="Rectangle" fill="url(#linearGradient-1)" transform="translate(1013.457202, 836.299706) rotate(199.000000) translate(-1013.457202, -836.299706) "></path>
                <text id="Data-vizualisation-&amp;" font-family="Lato-Medium, Lato" font-size="39" font-weight="400" letter-spacing="-0.658125103" fill="#FFFFFF">
                    <tspan x="1563.63756" y="759">Data vizualisation </tspan>
                    <tspan x="1630.32756" y="805">&amp; science</tspan>
                </text>
                <g id="analytics" transform="translate(1621.000000, 836.000000)" fill-rule="nonzero">
                    <g id="Group" transform="translate(21.000000, 23.000000)" fill="#E8EAE9">
                        <path d="M100.254206,74.0725466 L56.7651476,8.88592926 C56.1735522,8.29609646 55.5816794,7.70598714 54.6941476,7.70598714 C53.8066158,7.70598714 52.919084,7.70598714 52.3274885,8.29581994 L26.5890662,29.8281736 L5.2883028,1.21672026 C4.40077099,0.036778135 2.32977099,-0.258 1.14658015,0.62688746 C-0.0368880407,1.51177492 -0.332824427,3.57632797 0.554707379,4.7562701 L23.9264707,35.7273312 C24.5180662,36.317164 25.1099389,36.9072733 25.9974707,36.9072733 C26.8850025,36.9072733 27.476598,36.6122186 28.3641298,36.3174405 L53.8066158,15.0801415 L93.4496107,74.3676013 L100.253929,74.3676013 L100.253929,74.0725466 L100.254206,74.0725466 Z" id="Shape"></path>
                        <path d="M107.354461,8.00076527 C106.170992,7.11587781 104.10027,7.41093248 103.212738,8.59059807 L62.9778702,64.6335627 L45.8188295,49.0006431 C44.6353613,47.820701 42.8602977,48.1157556 41.6771069,49.0006431 L9.72596183,80.8565916 C8.54249364,82.0365338 8.54249364,83.8063087 9.72596183,84.9859743 C10.90943,86.1656399 12.6844936,86.1659164 13.8676845,84.9859743 L44.0437659,54.8998006 L61.794402,71.1228296 C62.3859975,71.7126624 63.2735293,72.007717 64.1610611,71.7126624 C65.0485929,71.7126624 65.9361247,71.1228296 66.2320611,70.5327203 L108.537651,12.1301479 C109.129524,10.9504823 108.833588,9.1807074 107.354461,8.00076527 Z" id="Shape"></path>
                    </g>
                    <path d="M141,135.418658 C141,138.649816 138.35625,141 135.418658,141 L5.5813418,141 C2.64375,141 0,138.35625 0,135.418658 L0,5.5813418 C0,2.64375 2.64375,0 5.5813418,0 C8.51893359,0 11.1626836,2.64375 11.1626836,5.5813418 L11.1626836,17.3314336 L15.2750918,17.3314336 L15.2750918,20.26875 L11.1624082,20.26875 L11.1624082,37.0125 L15.2748164,37.0125 L15.2748164,39.9500918 L11.1624082,39.9500918 L11.1624082,56.6938418 L15.2748164,56.6938418 L15.2748164,59.6314336 L11.1624082,59.6314336 L11.1624082,76.0813418 L15.2748164,76.0813418 L15.2748164,79.0189336 L11.1624082,79.0189336 L11.1624082,95.7626836 L15.2748164,95.7626836 L15.2748164,98.7 L11.1624082,98.7 L11.1624082,115.44375 L15.2748164,115.44375 L15.2748164,118.381342 L11.1624082,118.381342 L11.1624082,130.131434 L22.9125,130.131434 L22.9125,126.01875 L25.8500918,126.01875 L25.8500918,130.131158 L42.5938418,130.131158 L42.5938418,126.01875 L45.5314336,126.01875 L45.5314336,130.131158 L62.2751836,130.131158 L62.2751836,126.01875 L65.2125,126.01875 L65.2125,130.131158 L81.95625,130.131158 L81.95625,126.01875 L84.8938418,126.01875 L84.8938418,130.131158 L101.34375,130.131158 L101.34375,126.01875 L104.281342,126.01875 L104.281342,130.131158 L121.025092,130.131158 L121.025092,126.01875 L123.962684,126.01875 L123.962684,130.131158 L135.7125,130.131158 C138.35625,129.837592 141,132.1875 141,135.418658 Z" id="Shape" fill="#E6E6E6"></path>
                    <circle id="Oval" fill="#66C6B9" cx="126.5" cy="32.5" r="8.5"></circle>
                    <circle id="Oval" fill="#415A6B" cx="84.5" cy="90.5" r="8.5"></circle>
                    <circle id="Oval" fill="#F3705A" cx="64.5" cy="74.5" r="8.5"></circle>
                    <circle id="Oval" fill="#55C0EB" cx="47.5" cy="55.5" r="8.5"></circle>
                    <circle id="Oval" fill="#FFD15C" cx="73.5" cy="34.5" r="8.5"></circle>
                    <circle id="Oval" fill="#F3705A" cx="119.5" cy="98.5" r="8.5"></circle>
                </g>
            </g>
        </g>
    </g>
</svg>